# xmcd
#
# Track frame offsets: 
#        182
#        13245
#        25232
#        42940
#        57770
#        68945
#        80120
#        95432
#        107860
#        122820
#        134107
#        145245
#        164072
#        180657
#        196082
#        209870
#        226247
#        243632
#        258457
#        269027
#
# Disc length: 3732 seconds
#
# Revision: 4
# Processed by: cddbd v1.5.2PL0 Copyright (c) Steve Scherf et al.
# Submitted via: ExactAudioCopyFreeDBPlugin 1.0
#
DISCID=3d0e9214
DTITLE=Various Artist - Country Christmas [CD 1)
DYEAR=1997
DGENRE=Christmas
TTITLE0=Alan Jackson - Honky Tonk Christmas
TTITLE1=Dwight Yoakam - Santa Claus Is Back In Town
TTITLE2=The Tractors - Santa Claus Is Comin' (In A Boogie Woogie Choo 
TTITLE2=Choo Train)
TTITLE3=Sammy Kershaw - Christmas Time's A Comin'
TTITLE4=Travis Tritt - Santa Looked A Lot Like Daddy
TTITLE5=Aaron Tippin - Rudolph The Red Nosed Reindeer
TTITLE6=Alabama - Christmas In Your Arms
TTITLE7=Clint Black - The Coolest Pair
TTITLE8=The Bellamy Bothers - Old Hippie Christmas
TTITLE9=John Anderson - Christmas Time
TTITLE10=Skip Ewing - Mrs. Santa Claus
TTITLE11=Shenondoah - Have Yourself A Merry Christmas
TTITLE12=Lorrie Morgan - Christmas At Our House
TTITLE13=Randy Travis - White Christmas Makes Me Blue
TTITLE14=Trisha Yearwood - The Sweetest Gift
TTITLE15=Doug Stone - When December Comes Around
TTITLE16=Tanya Tucker - Winter Wonderland
TTITLE17=Joe Diffie - Leroy The Redneck Reindeer
TTITLE18=Tammy Graham - Rockin' Around The Christmas Tree
TTITLE19=Eddie Rabbitt - Jingle Bell Rock
EXTD=YEAR: 1997
EXTT0=
EXTT1=
EXTT2=
EXTT3=
EXTT4=
EXTT5=
EXTT6=
EXTT7=
EXTT8=
EXTT9=
EXTT10=
EXTT11=
EXTT12=
EXTT13=
EXTT14=
EXTT15=
EXTT16=
EXTT17=
EXTT18=
EXTT19=
PLAYORDER=
